<?xml version="1.0" standalone="no"?>
<!DOCTYPE svg PUBLIC "-//W3C//DTD SVG 20010904//EN"
 "http://www.w3.org/TR/2001/REC-SVG-20010904/DTD/svg10.dtd">
<svg version="1.0" xmlns="http://www.w3.org/2000/svg"
 width="1200.000000pt" height="1200.000000pt" viewBox="0 0 1200.000000 1200.000000"
 preserveAspectRatio="xMidYMid meet">

<g transform="translate(0.000000,1200.000000) scale(0.100000,-0.100000)"
fill="#000000" stroke="none">
<path d="M6377 10954 c-49 -7 -171 -29 -272 -48 -279 -54 -368 -61 -595 -48
-208 12 -406 6 -780 -24 -122 -10 -343 -17 -545 -18 -318 -2 -344 -4 -406 -24
-124 -41 -192 -107 -226 -221 -24 -81 -21 -238 10 -481 36 -277 56 -517 67
-810 11 -278 29 -449 65 -626 25 -122 25 -130 25 -616 0 -328 -5 -563 -15
-703 -8 -115 -15 -354 -15 -530 -1 -176 -5 -365 -11 -420 -5 -55 -13 -230 -19
-390 -5 -159 -19 -391 -30 -515 -16 -174 -23 -355 -30 -795 l-9 -570 -35 -140
c-59 -235 -86 -496 -86 -845 0 -85 -7 -285 -15 -445 -8 -159 -14 -447 -13
-640 1 -426 -8 -588 -31 -609 -9 -8 -43 -22 -76 -31 -50 -13 -150 -16 -620
-20 -308 -2 -589 -7 -625 -11 -107 -11 -150 -57 -150 -159 0 -65 17 -110 53
-144 38 -35 117 -40 607 -40 568 -1 961 19 1295 65 80 11 265 18 680 25 314 4
596 12 627 17 32 5 67 17 79 28 78 70 67 222 -21 282 -40 27 -53 27 -854 27
l-539 0 -18 25 c-36 48 -50 227 -50 640 1 206 6 456 11 555 6 99 15 326 20
505 10 378 37 594 100 800 18 60 20 95 20 485 0 445 10 709 35 970 39 413 100
2297 91 2860 -4 269 -7 323 -26 405 -36 163 -50 282 -65 578 -25 487 -35 631
-61 805 -13 93 -24 202 -24 243 0 118 -28 110 401 117 200 4 456 13 569 21
126 10 350 15 582 16 424 0 499 7 819 71 275 55 399 52 797 -17 129 -22 175
-26 382 -26 284 0 466 20 622 68 9 3 25 -3 35 -13 17 -17 18 -46 17 -418 0
-220 -4 -426 -8 -458 -12 -85 -29 -92 -226 -93 -258 -2 -347 -37 -636 -250
-163 -121 -231 -286 -254 -616 -13 -189 -13 -398 1 -495 25 -179 144 -543 209
-638 70 -102 210 -217 375 -308 82 -46 116 -59 187 -71 106 -19 151 -37 172
-69 12 -17 21 -77 31 -213 14 -170 36 -321 50 -345 3 -4 17 -95 30 -201 30
-232 59 -405 86 -513 26 -98 22 -176 -9 -207 -28 -29 -171 -42 -462 -42 -201
0 -242 3 -381 27 -168 29 -242 33 -304 16 -78 -22 -135 -113 -119 -194 15 -83
105 -155 195 -155 24 0 96 -10 159 -21 156 -27 513 -36 745 -19 196 15 206 13
236 -53 16 -37 19 -68 19 -262 0 -121 -7 -283 -15 -360 -8 -77 -15 -207 -15
-290 0 -124 -4 -157 -19 -191 -21 -45 -101 -141 -213 -254 -132 -133 -242
-298 -369 -552 -34 -68 -85 -166 -114 -218 -66 -117 -85 -173 -126 -370 -17
-85 -42 -184 -54 -220 -57 -161 -83 -297 -71 -364 14 -72 94 -136 172 -136 99
0 194 104 194 213 0 15 22 96 49 180 27 83 51 177 55 208 13 117 55 227 178
467 153 299 224 410 344 531 51 53 101 107 110 121 32 48 78 90 98 90 25 0
261 -238 367 -370 119 -148 154 -206 253 -417 79 -171 134 -265 215 -373 10
-14 40 -59 67 -100 27 -41 87 -113 135 -160 47 -47 117 -123 156 -170 86 -104
147 -162 204 -190 133 -68 293 85 231 222 -11 24 -93 126 -182 227 -318 360
-364 427 -523 741 -149 295 -211 387 -387 575 -194 208 -310 341 -361 416 -43
63 -43 65 -47 164 -2 57 3 147 12 210 12 89 14 171 9 423 -5 289 -4 314 12
332 24 27 93 47 215 64 243 33 562 85 612 100 29 9 105 27 168 41 148 32 236
74 267 130 48 85 11 204 -79 251 -43 22 -105 17 -244 -21 -231 -64 -278 -74
-404 -89 -69 -9 -201 -29 -295 -46 -93 -16 -194 -30 -222 -30 -69 0 -84 21
-94 138 -4 48 -14 103 -22 122 -25 59 -46 174 -77 425 -17 132 -39 276 -49
320 -28 118 -43 263 -31 307 10 35 13 37 63 43 29 4 112 0 187 -9 155 -18 199
-14 341 34 166 55 339 159 376 225 49 86 120 291 142 405 55 299 74 587 52
803 -16 151 -31 202 -93 307 -27 47 -60 110 -72 140 -13 30 -61 111 -107 180
-79 116 -108 173 -123 242 -8 37 -60 95 -106 118 -54 28 -139 39 -300 41 -80
1 -155 6 -167 10 -12 4 -25 22 -31 41 -5 19 -10 241 -11 518 -2 497 -9 645
-34 680 -20 29 -60 58 -114 82 -40 19 -66 22 -158 22 -91 0 -141 -7 -290 -39
l-180 -40 -235 0 c-225 0 -242 1 -400 32 -265 52 -512 65 -693 37z m2422
-1761 c16 -32 62 -103 102 -158 70 -97 109 -169 123 -229 4 -16 18 -43 30 -60
43 -56 76 -134 88 -205 29 -169 -37 -714 -104 -857 -44 -96 -140 -170 -258
-200 -58 -15 -86 -16 -275 -5 -240 14 -398 38 -570 87 -142 41 -230 80 -305
136 -100 76 -157 153 -179 245 -5 21 -25 91 -45 157 -57 184 -69 276 -62 441
17 340 39 442 115 516 57 55 115 95 213 149 l73 40 512 0 513 0 29 -57z"/>
</g>
</svg>
